/* XPM */
static char *_617ead191704ae7e388cb66d2c662526EnRkkF3OHTQrJM8[] = {
/* columns rows colors chars-per-pixel */
"64 64 137 2 ",
"   c #6E3A2C",
".  c #713D2F",
"X  c #733F31",
"o  c #71402F",
"O  c #744032",
"+  c #7D4435",
"@  c #774638",
"#  c #7D4638",
"$  c #7B4A3C",
"%  c #7D4D41",
"&  c #7F5346",
"*  c #804736",
"=  c #814837",
"-  c #804638",
";  c #804C3E",
":  c #8C4E3D",
">  c #914F3E",
",  c #8F503F",
"<  c #93523F",
"1  c #98533F",
"2  c #834F41",
"3  c #8E4F40",
"4  c #914F41",
"5  c #835042",
"6  c #8E5444",
"7  c #81554A",
"8  c #955341",
"9  c #9B5744",
"0  c #945947",
"q  c #9C5845",
"w  c #955748",
"e  c #935949",
"r  c #9A5D4B",
"t  c #A05744",
"y  c #A35C46",
"u  c #AA5E4A",
"i  c #AD614C",
"p  c #B0624C",
"a  c #BC634E",
"s  c #B26450",
"d  c #8B6D66",
"f  c #8B6E68",
"g  c #936D64",
"h  c #887066",
"j  c #8E716B",
"k  c #967066",
"l  c #94716A",
"z  c #9D7B6F",
"x  c #9D7F75",
"c  c #9C7E76",
"v  c #9D7C72",
"b  c #A17E74",
"n  c #C0664E",
"m  c #C1664E",
"M  c #C36750",
"N  c #C66751",
"B  c #C36650",
"V  c #C86754",
"C  c #C86754",
"Z  c #C26850",
"A  c #C46851",
"S  c #C76950",
"D  c #C56952",
"F  c #C76852",
"G  c #C66A53",
"H  c #C76852",
"J  c #C86A51",
"K  c #C86852",
"L  c #C96953",
"P  c #CB6853",
"I  c #C96953",
"U  c #9E8076",
"Y  c #9D8078",
"T  c #9E8179",
"R  c #9F827A",
"E  c #9F827C",
"W  c #9E877F",
"Q  c #9E827A",
"!  c #A58175",
"~  c #A78176",
"^  c #A68175",
"/  c #A88277",
"(  c #A98177",
")  c #A78178",
"_  c #A2847A",
"`  c #A3857B",
"'  c #A1867B",
"]  c #A1847C",
"[  c #A0857C",
"{  c #A2847C",
"}  c #A2857D",
"|  c #A3857D",
" . c #A1867D",
".. c #A3877C",
"X. c #A2857F",
"o. c #A1867F",
"O. c #A3867E",
"+. c #A2877E",
"@. c #A4867E",
"#. c #A4877F",
"$. c #A5877F",
"%. c #A2857D",
"&. c #A8837A",
"*. c #A3887D",
"=. c #A3887F",
"-. c #A3887F",
";. c #A08780",
":. c #A38680",
">. c #A68782",
",. c #A28780",
"<. c #A18881",
"1. c #A38881",
"2. c #A58A81",
"3. c #A58A83",
"4. c #A28984",
"5. c #A38982",
"6. c #AA8D84",
"7. c #A7958C",
"8. c #A8918B",
"9. c #A9928A",
"0. c #A8948B",
"q. c #A9928C",
"w. c #A9958C",
"e. c #A8948D",
"r. c #AA968D",
"t. c #A8958E",
"y. c #A9958E",
"u. c #AB948E",
"i. c #A9968F",
"p. c #AA968F",
"a. c #A9958E",
"s. c #AA9790",
"d. c #AA9790",
"f. c #A99891",
"g. c #AB9891",
"h. c #AA9991",
"j. c #AA9891",
/* pixels */
"p p p p p p p i 9 9 9 r f f f g F F K F F F F F F K F M p p p p p p p p p p p i q q 9 r } } _ ! F F V Z p p p p p p p p p p p p ",
"p p p p p p i i 9 9 9 r f f f g F F F F N F K F F K F M p i p p p p p p p p i i 9 9 q r } } } _ F F F M i p p p p p p p p p p p ",
"p p p p p p p i 9 9 9 r f f f g K K K K K K K K K K K F p i p p p p p p p p p i 9 9 9 r } } } ( K K K N p p p p p p p p p p p p ",
"i i i i i i i u 9 9 < w j j j k a a a a a a a a n n n a i i i i i i i i i i i u 9 9 9 r } } } ! a a a a i i i i i i i i i i i i ",
"q 9 9 9 9 9 9 9 , , : e } } ;.v + + + # , 6 6 8 9 9 9 9 9 9 9 q q 9 9 9 9 9 9 9 < , : e } } } v + + + * q 9 9 9 9 9 9 9 9 9 9 9 ",
"9 9 9 9 9 9 9 9 , 6 : e } } >.v # + + # , , , 8 9 9 9 9 9 9 9 9 9 9 9 9 9 9 9 9 , , : e } } } v + + + - q 9 q q 9 9 9 q 9 9 9 9 ",
"q q q q q q q 9 8 8 , e _ } $.v + + + - 8 < , 8 9 9 9 9 9 9 9 9 q q q q q q q 9 8 8 : e } } } v + + + = q 9 9 9 q q q q q q q q ",
"8 8 8 8 < < 8 8 : : : 6 =.} 5.c + + + # : : : : 9 9 9 9 9 9 9 8 8 8 8 8 < < 8 8 : : : 0 W } } v + + + - 9 9 9 9 8 8 8 8 8 8 8 8 ",
"+ + + # X X X X X O . % t.t.s.<.X X X X O X X O , , , , , , , : + + + + X X X X X O . $ } } $.v O X X O , , , : + + + + + + + + ",
"+ + + + X X X X O X X % t.t.f.W X X O O X X X + > , , , , , 8 : + + + + O O O O O O . $ } } $.v O X O + , , 8 : + + + + + + + + ",
"+ + + + . . . . . .   $ 0.q.f.;.. . . . . X X X : : : : > > > : + + + + . . . X X . . @ } } } v . . . O : > > : + + + + + + + + ",
"; $ ; $ @ @ @ @ $ $ @ 7 t.t.f.4.$ $ $ @ @ @ @ @ 6 6 6 6 6 6 6 6 ; $ ; $ $ $ $ @ $ $ @ & $.} 5.c $ $ $ $ 6 6 6 6 ; ; ; ; ; ; ; ; ",
"f f f f f f f j } } _ =.t.t.t.8.} } } E f f f f f f f f f f f f f f f j } } } } } } } $.t.t.t.8.} } $.T f f f f f f f f f f f f ",
"f f f f f f f j } } } <.t.t.t.8.} } } T f f f f f f f f f f f f f f f j } } _ } _ } } <.t.t.t.0.} } } T f f f f f f f f f f f f ",
"f f f f f f f j } } } 5.s.s.f.t.;.<.5.E f f f f f f f f f f f f f f f j } ;.} } } ;.} <.s.s.f.7.;.;.5.E f f f f f f f f f f f f ",
"g g g g g g g k ! ! ! _ 6.6.6.2.b v b v g g g d d d d f j j j j g g g k ! ! ! ! ! ! ! _ 6.6.6.2.v b b z g g g g d d d f f f f f ",
"F N F F F K K M p p p p p p p i 9 9 9 q p p p i 9 9 9 r } } } ! F F F Z p i p p p p p p p p p i 9 9 9 q i p p i 9 9 9 r f f f f ",
"N K F F F F m M p p p p i i p i 9 9 9 q p p p i 9 9 q r } _ } ! K F F M p p p p p p p p p p p i 9 9 9 9 p p i i 9 9 9 r f f f f ",
"K K K K K K K F p p p p p p p i q 9 9 q p p s i q q q r } } } ( L L K N p p p p p p p p p p p i 9 q 9 q p p p i q q 9 r f f d f ",
"a a a a n n M a i i i i i i i u 9 9 9 9 u u i y 8 8 1 w _ _ } ! a a a a u u u u u u u u u u u u 9 9 9 9 u i u u 8 8 < w j l j j ",
"@ + + = 9 9 9 9 9 9 9 9 9 9 9 9 9 9 9 8 , , 3 : # + + 2 } } ;.v + + + + , 8 > , : , , , , , , , , , , , > , 8 : + + + 2 } _ } } ",
"+ + + = q 9 9 q 9 9 9 9 9 9 9 9 q q 9 9 : , , : + + + 2 } } >.v + + + # 8 , , , , , 8 , , : , , , , , , , , , : + + + 2 ;.} } } ",
"+ + + = q 9 9 q 9 9 q 9 q q q q q q q 9 8 6 8 , + + + 2 } } >.v + + + # < < < < , , , , , , , , > , , > , , 8 , + + + 2 } } } } ",
"+ # # - 9 8 9 9 9 9 9 9 9 8 8 8 8 9 8 < : : : : + + + 2 } } 5.c + # + # : : : : : : : : , , , 6 , , , > : : : : + + + 2 } } } } ",
"+ + + + , > 8 8 9 q q 8 + + + + + + + + + + + + X O . $ t.t.f.;.X X X X X X X O + + + + > , , , , , , : + + + + O O . @ } } } } ",
"+ + # - , > , 8 9 9 q 8 + + + + + + + + + + + + X X . $ t.t.f.;.O X O O O X X O @ + + + 8 , , , , , 8 : + + + + O . . @ } } } } ",
"+ + + + : > : > 9 9 9 9 + + + + + + + + + + + + . .   $ t.q.f.=.. . . . . . . X + + + + : : : 3 > , , : + + + + . X . @ } } } } ",
"2 2 2 2 6 6 6 0 r w w 0 ; ; ; $ ; ; $ ; 2 2 2 2 @ $ @ 7 t.t.s.<.$ $ $ $ $ $ $ $ ; ; $ ; 6 6 6 6 6 6 6 6 ; ; ; ; $ $ @ & $.=.=.=.",
"} } } T f f f f f f f f f f f f f f f j } } } } } } ] $.t.t.t.8.} } } } } } } T f f f f f f f f f f f f f f f j } $.} 5.s.t.t.t.",
"_ } } T f f f f f f f f f f f f f f f j } } } } } } } <.t.0.t.q.} } } } } } $.T f f f f f f f f f f f f f f f l } } } 5.t.t.t.t.",
"} } =.T f f f f f f f f f f f f f f f j ;.} } } } W } <.s.s.f.e.;.;.;.} } } } T f f j f f f f f f f f f f f f j } ;.} <.s.s.t.s.",
"! ! ! b g g g g d d d d j j j j g g g k ! ! ! ! ! ! ( &.6.6.6.2.b b b b ! ! ! b d d d d j j j j g g g g g g g k ! ! ! _ 6.6.6.6.",
"p p p p p p p i q 9 9 r } } } _ F F F F K K K F F C K M i p p i 9 9 9 9 p p p i 9 9 9 r } } } ( F F F F F K K n p p p p p p p p ",
"p p p p p p p i 9 9 9 r } } _ ! F F F F F K F F F L K N i p p i 9 q 9 t p p p i 9 9 9 r } } } ! F F F F F F K n p p p p p p p p ",
"p p p p p p p i 9 q 9 r } } } _ K K K K K K K K F K K F p p p i 9 9 9 t i p p i q q 9 r } _ } ! K K K K L K K F p p p p p p p p ",
"i i i i i i i i 9 9 9 r } } } ! a a a a M M a M n M n a i i i u 9 9 9 q i i i u 8 8 < w } _ } _ a a a a n n n a i i i i i i i i ",
"9 9 9 9 9 9 9 9 , , : e } } } b , , , < 9 q 9 9 9 9 q q 9 9 9 9 9 9 9 9 9 9 9 8 + + + 2 } _ } b : , , 8 9 9 9 9 9 9 9 9 9 9 9 9 ",
"9 9 9 9 9 9 9 9 6 , : e } } } v 6 3 6 8 9 q 9 9 9 9 9 9 q 9 9 9 9 9 9 q q 9 q 8 + # + 2 } } } v , , , 8 9 q 9 9 9 9 9 9 9 9 9 9 ",
"q q q q q q q 9 8 8 : e } } } c , < , 8 q q q q 9 9 9 9 9 9 q 9 q q q q q 9 q 8 + + + 2 } } } v 8 , , 8 9 9 9 9 9 9 9 9 9 9 9 9 ",
"8 8 8 8 8 8 8 8 : : : 6 } } } v : : : , 8 8 8 8 9 9 9 9 9 9 9 9 8 8 8 8 8 8 8 < + + + 2 $.} 5.c : : : : 9 8 9 9 9 9 9 9 9 9 9 9 ",
"+ + + + + + + + X O . $ } } } v + + + + + + + * , , : , , , , : + + + + + + + + X O . $ t.t.f.<.+ + + - , , , , , , , , , , , , ",
"+ + + + + + + + O O . @ } } $.v # + # # + + # - 4 6 6 , , , 8 : + + + + + + + + O O . % t.t.f.<.# + # - 8 > > > , , , , , , , , ",
"+ + + + + + + + X . . @ } } $.v + + + + + + + + : : : : > > > : + + + + + + + + . .   $ 7.t.f.<.+ + + + , , : , > > : : : : : : ",
"; ; $ ; 2 2 2 2 $ $ @ & $.} 5.U 2 2 2 2 ; ; $ ; 6 6 6 6 6 6 6 6 ; ; ; ; ; ; $ ; $ $ @ 7 t.t.s.3.2 2 5 5 6 6 6 6 6 6 6 6 6 6 6 6 ",
"f f f j } } } } } } } $.t.t.t.8.} } } T f f f f f f f f f f f f f f f f f f f j } } _ } t.t.t.8.} } } T f f f f f f f f f f f f ",
"f f f j } } } } _ } } <.t.t.t.0._ } } T f f f f f f f f f f f f f f f f f f f j } } } 5.t.t.t.q.} } } T f f f f f f f f f f f f ",
"f j f j } ;.} ;.} ;.} <.t.s.f.7.=.;.5.E f f f f f f f f j f f f f f f f f f f j } $.} <.s.g.f.t.} >.<.E f f f f h j f f f f f f ",
"d d d g ! ! ! ! ! ! ! _ 6.6.6.2.b b b v g g g g d d d d f f f f g g g g g g g g ! ! ! _ 6.6.6.2.b b b v g g g g d d d f j j j j ",
"9 9 9 q p p p p p p p p p p p i 9 9 9 q p p p i 9 9 9 r f f f g V F F M p i p p p p p p p p p i 9 9 9 9 p p p i 9 q 9 r } } } } ",
"q 9 9 q p p p p p p p p p p p i 9 9 9 q p p p i q 9 q r f f f g K F F M p p p p p p p p p p p i 9 q 9 t p p p i 9 9 9 r } } } } ",
"q q 9 t p p p p p p p p p p p i 9 9 9 t p p p i 9 9 9 r f f f g L K K F p i p p p p p p p p p i 9 9 9 t i p p i q q 9 r } } } } ",
"8 8 8 9 i i i i i i i i i i i i 9 9 9 q i i i u 9 9 1 0 j j j k a a a a i i i i i i i i i i i i 9 9 9 q i i i u 1 8 < r _ } } } ",
"+ + + = 9 9 9 9 9 9 9 9 9 9 9 9 9 9 q 9 q 9 9 9 , 8 : e } } } c , , : 8 9 q 9 9 9 9 9 9 9 9 9 9 9 9 9 9 9 9 9 8 @ # + 2 } } $.} ",
"+ + + = 9 9 9 9 9 9 9 q 9 9 9 9 9 9 9 q 9 9 9 9 , > : e } } } b , 6 6 6 q 9 9 9 9 9 9 q 9 9 9 9 9 9 9 q q 9 q 8 + + + 2 } } } $.",
"+ + + = q q q q q q q q q q q q q q q q q q q 9 8 < , e } $._ v 8 , < 8 q q q q q q q q q q q q q q q q q 9 q 8 + + + 2 } } } } ",
"+ + + + 8 9 8 8 8 8 8 8 8 8 8 8 8 8 8 8 8 8 8 8 : : : 6 5.;.*.c : : : : 8 8 8 8 8 8 8 8 8 8 8 8 8 8 8 8 8 8 8 < + + + 2 =.=.5.*.",
"X X X O + + + + + + + + + + + + + + + + + + + + X O . $ t.t.g.;.X X X O + + + + + + + + + + + + + + + + + + + + X O . $ t.u.t.t.",
"O O X O + + + + + + + + + + + + + + + + + + + + O X . $ s.q.f.W O X X X # # # # + + + + + + + + + + + + + + + + O o . % t.t.t.t.",
". . . X + + + + + + + + + + + + + + + + + + + + . .   $ t.q.f.<.. . . . + + + + + + + + + + + + + + + + + + + + . .   $ t.t.t.t.",
"@ $ $ $ $ ; $ $ ; ; ; ; ; ; ; ; ; ; ; ; ; ; $ ; $ $ @ 7 t.t.f.4.$ $ $ $ 5 2 2 2 ; ; ; ; ; ; ; ; ; ; ; ; 5 2 2 2 % % $ 7 t.t.t.t.",
"} } } T f f f f f f f f f f f f f f f f f f f j } } { *.t.t.s.q.} } } } } } } T f f f f f f f f f f f j } } } =.t.t.t.t.e.t.t.t.",
"} } } T f f f f f f f f f f f f f f f f f f f j } } } =.t.t.t.8.} } } } } } } T f f f f f f f f f f f j } _ _ =.t.t.t.t.t.t.t.t.",
"} } } T f f f f f f f f f f f f f f f f f f f j } } { =.t.t.t.8.} } } } } } } T f f f f f f f f f f f j } } } =.q.t.t.t.t.t.t.t.",
"} } } T f f f f f f f f f f f f f f f f f f f j } } } =.t.t.t.q.} } _ } } } >.T f f f f f f f f f f f j } } } =.t.t.t.t.t.t.t.t."
};
