/* XPM */
static char *bc2fe32d389c4c04e5974e1ae99a117bqok1Kp5LWZvWAB3W[] = {
/* columns rows colors chars-per-pixel */
"64 64 198 2 ",
"   c #685E5A",
".  c #6C635D",
"X  c #71645C",
"o  c #7D6A5B",
"O  c #646564",
"+  c #696663",
"@  c #656867",
"#  c #6C6966",
"$  c #656769",
"%  c #69676A",
"&  c #65696B",
"*  c #6B6B6B",
"=  c #756B65",
"-  c #7B6E65",
";  c #736E6B",
":  c #7A6F69",
">  c #6E716E",
",  c #737165",
"<  c #7D7165",
"1  c #74726D",
"2  c #7A736C",
"3  c #6D6F71",
"4  c #726F71",
"5  c #6E7274",
"6  c #6D7379",
"7  c #747473",
"8  c #797573",
"9  c #757876",
"0  c #7B7976",
"q  c #747579",
"w  c #7A7778",
"e  c #767A7B",
"r  c #7C7C7C",
"t  c #806F5F",
"y  c #806E60",
"u  c #837366",
"i  c #8B7565",
"p  c #82746B",
"a  c #83796D",
"s  c #8C796C",
"d  c #947C6C",
"f  c #817773",
"g  c #847B74",
"h  c #8B7C73",
"j  c #827E7C",
"k  c #897E79",
"l  c #927E73",
"z  c #7E807E",
"x  c #8C8176",
"c  c #83817E",
"v  c #8C827B",
"b  c #848276",
"n  c #938276",
"m  c #9B8476",
"M  c #94857B",
"N  c #99857A",
"B  c #948B7F",
"V  c #9D8A7B",
"C  c #AE8A6E",
"Z  c #B28B6E",
"A  c #A38B76",
"S  c #AD8C74",
"D  c #A48D7C",
"F  c #AB8E7B",
"G  c #B48772",
"H  c #B28D74",
"J  c #B28E7A",
"K  c #A6917F",
"L  c #AA907E",
"P  c #B69175",
"I  c #B3927C",
"U  c #BC967B",
"Y  c #BD997E",
"T  c #BD9474",
"R  c #C1997D",
"E  c #C0967D",
"W  c #7C7E81",
"Q  c #777C80",
"!  c #827F81",
"~  c #7E8182",
"^  c #7F848A",
"/  c #828283",
"(  c #8B8683",
")  c #868887",
"_  c #8C8A86",
"`  c #858688",
"'  c #858A8C",
"]  c #8D8D8C",
"[  c #8B8788",
"{  c #948781",
"}  c #948B84",
"|  c #9B8D83",
" . c #928E8B",
".. c #998F89",
"X. c #8E908E",
"o. c #9D9086",
"O. c #91918E",
"+. c #92918E",
"@. c #9B928B",
"#. c #868C91",
"$. c #8D8E91",
"%. c #918F90",
"&. c #918E93",
"*. c #8E9192",
"=. c #8E9295",
"-. c #8E9193",
";. c #8F959B",
":. c #909090",
">. c #929292",
",. c #949291",
"<. c #919595",
"1. c #919292",
"2. c #999592",
"3. c #909599",
"4. c #A28F82",
"5. c #A49284",
"6. c #AB9484",
"7. c #A3938A",
"8. c #AA9689",
"9. c #A59B8E",
"0. c #AC9A8D",
"q. c #AF9984",
"w. c #B49682",
"e. c #B99783",
"r. c #B79A85",
"t. c #BC9B83",
"y. c #B19788",
"u. c #B59B8B",
"i. c #BB9D8A",
"p. c #AB9B93",
"a. c #A09993",
"s. c #B29F92",
"d. c #BB9F91",
"f. c #BCA28E",
"g. c #AFA194",
"h. c #AAA19A",
"j. c #B5A293",
"k. c #BAA293",
"l. c #BCA79B",
"z. c #BBA99B",
"x. c #B6A899",
"c. c #BDACA2",
"v. c #BDB3AA",
"b. c #C29C83",
"n. c #C09B88",
"m. c #C09F90",
"M. c #CAA386",
"N. c #C4A28D",
"B. c #C9A48A",
"V. c #C5A083",
"C. c #D2A78D",
"Z. c #D6AD8F",
"A. c #C2A794",
"S. c #C4AA96",
"D. c #CDAA94",
"F. c #C4AC9C",
"G. c #CAAE9A",
"H. c #C2A698",
"J. c #D3AC94",
"K. c #D1AE9B",
"L. c #D9AF97",
"P. c #CDB29D",
"I. c #D6B196",
"U. c #DAB194",
"Y. c #D4B29D",
"T. c #DBB39C",
"R. c #DCB89E",
"E. c #E2B89F",
"W. c #C3AFA2",
"Q. c #CAAEA0",
"!. c #C4B1A3",
"~. c #CBB3A3",
"^. c #CDB9A5",
"/. c #C5B5AB",
"(. c #C9B7AB",
"). c #CCB9AB",
"_. c #D3B5A2",
"`. c #D4B9A3",
"'. c #DABBA5",
"]. c #D1B7A8",
"[. c #D4BBAB",
"{. c #DEBEAA",
"}. c #DAB7A3",
"|. c #CCBDB2",
" X c #E2BBA4",
".X c #E3BEA9",
"XX c #E9BFA6",
"oX c #DDC1AD",
"OX c #D5C2B3",
"+X c #DCC5B5",
"@X c #DBC8B9",
"#X c #E4C2AD",
"$X c #E8C4AC",
"%X c #E5C0A5",
"&X c #E2C5B2",
"*X c #E2C9B6",
"=X c #E3CBBC",
"-X c #DFCDC1",
/* pixels */
"r r r 7 7 7 7 7 7 w 7 7 7 7 7 7 7 7 1 9 c j 0 c  . .] X.*.*.-.-.w O % O w ,. . ._ c j j j w 7 7 1 1 2 2 2 1 1 7 7 9 5 7 7 7 j j ",
"/ r r 7 7 7 * 7 7 7 7 7 7 7 r 7 7 7 7 0 c c j ( O.O.O.X.*.*.*.*.7 O * $ w >.] ,.( c r r j w 7 7 r 7 1 1 7 8 0 7 7 7 7 q w r r r ",
"r r r r r r / ] [ [ [ ] [ [ ] [ ) ' ) ' $.] [ ] ] ] ] ] ] ] X.X.r * 7 3 r >.] >.>.] [ ] ] [ [ ] #.6 & @ $ 7 / r r e W r W r w 7 ",
"/ r / r / / / ] >.>.>.>.] >.>.] <.=.*.*.=.=.$.] *.] ]  . .+.+.O.~ 7 w 7 / <.] ] >.] ] O.O.X.>.<.$.6 & 3 * 7 / r / r / ~ W W 7 7 ",
"/ z / ~ ~ ~ / ] >.] %. . .%. .] ] ] ] ] *.<.=.*.*.$.$.] ] ]  . .e 5 > 5 ~ <.*.*.*.*.*.*.X.] ] X.3.5 O % + 8 c j r r ~ W W W 7 q ",
"r r ~ r z / / >.>.>.%. .>.%.] 2.} } @...] X.<.$.=.=.=.>.>.>.+.O.r 7 7 7 ~ ] $.*.X.*.1.>.O.O.O.O.[ 1     X - g g k g r ~ ~ W q q ",
"~ r e 5 > 7 7 r r r r r / j r ..8.6.8.| g r / W W W W Q Q r r r ( / ( / ~ ~ W ~ r ~ ) / ( ( ) ( n 5.8.q.r.w.F 4.7.{ j ! / W W e ",
"~ r 9 @ O @ % 7 * 7 7 * w 7 ; } j.i.u.V < = 7 7 6 6 6 6 7 7 7 1 (  .2.O.c 7 3 5 w r ~ z r r r g i A.{._.Y.D.t.i.j.7.g r W W ^ ~ ",
"r ~ 9 @ % @ % 7 7 r 7 w 7 7 7 ..i.e.i.D < ; w w q 5 q e 7 w r 2 v @. .+.( 7 7 7 w / / r ! ! r g i N.Y.D.J.B.w.r.u.7.f g / W W ~ ",
"~ ~ 7 @ @ O % 7 7 7 7 7 7 w 7 } k.r.f.4.p 2 w 7 5 7 7 ; ; = = = v | } ..c ; 7 7 w W / / / / c v h A.[.`._.D.r.u.j.7.h j / W ~ W ",
"~ z r e r e r r r r w w r r 7 ( 7.V o.v ; ; 1 * 7 r 0 f 7.5.4.4.4.4.| @.( 8 r w r w r r w w r 0 f ..p.9.8.5.V V | v f 0 r r / r ",
"r r ) >.>.>.] / / / ! j ! ! r c g f b 8 O O % @ c c g h !.]._._.y.5.7.7.{ g j r r 7 7 7 7 7 7 7 ; 4 ; = ; - = - 2 ; 1 8 7 0 j 0 ",
"/ r ) >.] >.] / r r / r / / r j j r c 7 O @ @ * r v g h W.~.K._.y.4.4.7.M g c r ! 7 7 7 7 7 w 7 e q 5 7 7 8 8 7 7 1 7 7 1 w j j ",
"/ r ) ] ] ] [ r r r / r r / / / / c / 9 @ & @ * j c g h F.~._.`.u.6.5.8.{ x c c r 7 7 7 7 7 7 7 5 5 7 7 7 1 7 7 7 7 7 7 * w j c ",
"r r ) >.>.>.] ) ) / ) r r r r r r 0 r 7 * * @ * r r f k p.l.k.k.F A V V x g 0 r w r r e e r 0 0 r r r r 0 0 0 r r w W w r r 7 0 ",
"r r / ] ] ] >.] >.[ ] r 7 7 7 7 7 7 7 7 5 7 5 q 7 7 7 2 2 2 - - y t < < 2 1 * 7 z ] *.X.>.O.] >. .>. .] +.O.] >.$.] *.*.>.` * @ ",
"~ W / ] >.] ] ] ]  .] r 7 7 7 7 7 7 7 7 7 7 7 7 7 7 r 7 w 4 8 8 2 8 7 7 7 5 w 7 r ] >.] [ >.] O. .O.O.] *.>.[ ] ] ] >.[ <.] $ * ",
"W r / ] 1.X.] O.] O.O.r 7 7 7 7 7 w 7 7 7 8 1 1 8 ; 1 ; 7 7 7 7 7 7 6 q 5 5 q 5 r +._ { ..@._ } +. .O.] ] <.*.>.>.O.O.] >.` & & ",
"z r / [ X.] ] ] ] ] ] r 7 7 7 7 > 7 7 1 f a u a u u a g ; 1 7 7 7 7 7 w q 7 r 7 8 2.} | o.| | @.@._  .] [ ] ] ] ] ] ] ] ] / 5 & ",
"7 7 7 9 r 9 w r / / ~ r r / / / / c g @.|.OX`._.S.S.F.z.g 2 7 7 r r r r 7 % % . k |.|.OXOX!.W.!.v.( 8 8 7 r w 7 w 7 % * * 5 r r ",
"7 1 7 7 7 5 w r W ~ W ~ / r r r r r f 7.=X&X.X.XT.Y._.!.h 2 4 4 r c c c 7 + + . h @X+X+X&X_.Y.G.(.v ; 8 7 7 7 7 7 * O O O % r / ",
"7 7 7 7 7 7 e ~ ~ ~ r j j j v ( j j k p.=X.X XXXJ.J.Y.Q.h : 8 w r r r c 7 # = X h +X&X{.{.Y.Y._.!.h : 0 7 7 5 w w 7 % % % * r / ",
"1 1 7 7 7 7 q e / / 0 j k f g a k g p 4.*X#X$XE.I.I.Y.G.h - ; 7 c z r r 7 + . . s {.&X$X#XI.J.Y.].M = = 7 w q 5 q 3 O O + * r c ",
"_ ) [ [ ) ) / / r j ( h././.!.j.o.9.8.q.G.t.B.M.V.t.n.N.D V | } c z r / r 8 f p n F.N.N.B.R U U y.N M } _ ) ) ' ' ` ) ) ( j 7 * ",
">.>.>.$.*.<.$./ / j f |.-X+X*XP.u.u.t.t.t.Y U U U Y Y U I F L 8.( ~ r W W c j h n u.w.w.e.S H F K | } ..O.>.=.-.<.=.>.>.O.[ + + ",
"] ] ] ] $.>.] j j g h /.@X[.oXS.w.t.t.t.t.t.Y t.Y t.t.U I S S 5.v ~ W W W r j g M s.u.r.i.F F F 4.| }  . .$.*.$.' ] ] ] O._ + + ",
"=.*.<.<.<.<.] c j k v /.=X=X=XP.t.t.i.i.i.i.i.i.i.i.i.r.w.I I 6.v ~ ~ / W W j g B g.s.s.k.6.6.5.7.o.@.+.>.<.=.=.<.>.>.O.O._ @ O ",
"` / ` ` ) ) ( j g g f o.p.0.0.V m m m m N N N N N N N m l l d l g r r r 7 7 7 1 8 M M N N l l x x x k c ~ ~ ~ W / / ) ( ( ( 7 7 ",
"W r r / r r c j j k g 2 = X - = 2 2 1 1 1 1 1 1 1 1 1 1 1 1 1 2 1 ; 7 7 * @ % O # 2 2 2 2 < 2 2 1 1 7 7 7 7 7 7 7 7 r j c c r / ",
"/ r / / r r j j j c j 8 8 7 w 8 7 7 7 7 7 7 7 9 7 7 7 7 7 7 7 7 8 8 w w * * % % * 1 2 1 1 1 1 7 7 7 7 7 7 7 7 7 7 0 c j c r r r ",
"r r r c j j j r r r r 7 e e q 5 7 7 7 7 7 7 7 7 7 7 7 7 7 7 7 7 = = ; 1 % O O O * 1 1 1 7 7 7 7 7 7 7 7 7 7 7 7 1 8 j j c r / r ",
"c j v } | | | { M ( } 7 7 3 5 e r r r w 7 7 7 7 w w w 7 7 w w 7 { M | | v h h k g 0 r r r r r r r r W r W r r r r r ( / ( / [ / ",
"k g | ).~.Y.}.t.r.u.j.: + % O ~ 2.[ 1./ 5 9 7 7 ! j / ! ! z ~ z W.=X&X&X'.Y._.].c.| +.] >.>.O. . .$.$.$.*.*.*.$.$.<.] ] >.] >.>.",
"g a N ~.Y.J.L.b.t.e.u.y . # O r O._ +.~ > 7 7 w / j ! r / / ~ 8 z.&X.X%XU.Z.J.Y.l.|  .] <.] ] [ O.O.>.*.*.*.*.*.$.*.$.$.>.$.] ] ",
"c k | ).[.Y.K.t.e.u.s.p . + % / +.] 2.( 7 7 7 w r W / r / r j g W.&X#X$X XI.Y._.l.|  .] >.*.>.>.>.O.%.>.>.>.>.*.>.>.] ] *.<.$.>.",
"r r { x.F.H.H.u.8.0.p.8 + O @ r ] _ ] c 7 7 7 w r r z w ( v v l F.'.}.R.T.J.J.G.k.5.| ..+._ [ ] ] ] ] ] ] ] ] ] [ ] ] ] $.*.] $.",
"/ r 0 g a p p - p 2 f ; 7 r w w w 9 w w 7 q q w 7 7 1 a z.!._.K.I I H H P Z H H I A K 7.| g 8 7 7 7 7 7 7 7 7 7 7 j ] >.*.] ~ ~ ",
"/ ! r ; 1 2 2 2 2 1 8 7 w 7 7 * 5 5 5 7 q q q q 9 7 , < F._.T.J.U H H C H H H H H S F 6.| 2 2 1 7 7 7 7 8 7 8 2 ; 0 O.>.$.] W W ",
"W ~ j 1 8 1 1 7 7 7 w 7 7 4 r w 7 7 7 w q q q q 7 7 2 u F.K.L.T.t.S S S I S H H H S F L 4.2 8 0 7 7 7 7 7 7 7 7 7 j >.] ] $.~ ~ ",
"W r r 4 0 7 7 q q q q q w 7 w ; : 8 2 7 7 7 7 q 7 7 1 < !._.Y.Y.r.D F D 6.D F F F L D 5.o.2 7 7 7 7 7 7 7 7 7 7 1 r O. .>.>.r r ",
"! / j r / r ~ ' ' ' ' w 7 w ; { 8.6.6.7.{ _ ] ) ] ] [ ..g h l h < - = = 2 g f a h o.{ } 2.] ' ' #.$.' ) ] ) r r r r j ( / / / r ",
"r ! r r r r / *.-.$.*.w 7 7 ; | m.n.i.0.| } +.*.=.$.&.%.w 8 8 1 # O O @ * 7 7 ; 0 +. .[ <.$.;.;.-.<.=.=.>.` r r c c c c r r j r ",
"/ / ! j j r / *.=.=.=.r 1 1 2 | r.e.u.8.B _ X.*.$.$.&.&.w 7 7 7 3 * $ & 5 w e q w ] >.>.%.$.] ] [ ] >.>.>.) r r r r r r r j j c ",
"r r r c c j / ] $.$.$.r 7 8 8 M k.d.j.9.@.+.O.>.&.&.&.$.r 7 7 7 & @ @ $ * 5 5 5 W ] >. . .@.} { } } }  . .( c / / r r j / c j j ",
"7 > 7 r c j / / ` ) ) r r r 0 g v n v c ( / / / ` ` [ / j 0 0 0 r c c c c ( ) ) ) ) ( v M j.k.k.k.6.| o.@.} ( _ [ ` ` ) [ ) 7 1 ",
"@ @ > r c j j j ! r / r r / 0 0 * ; ; 7 r / W / r r r r c j c c ] O.+.+.O.+.+.,.] r r g n ~.Y.Y.Y.t.D 5.7.o... .>.] $.] >.( % + ",
"@ @ > c c j j j ! r W W ~ / r 9 9 9 7 0 ! ! r r / ~ ~ r ~ r r r ] $.O.O. . .] $.$.W W j h ~.Y.I.U.U C F 5.5.@. .>.] =.$.<.[ @ O ",
"@ O > c c j j / / ! / / r ~ ~ e > 7 7 w / / ! / W ~ ~ e / ~ ~ / _ _ } { { } } _ _ 0 j g s P.I.U.U.T C H F D | { ..] >.$.<.) % % ",
"1 1 7 w 0 r W r r r W e ~ q e w 7 7 7 9 r r e e r r r r e e W r | k.y.q.k.j.j.j.j.5.6.D w.N.C.C.M.R P P I F A D | | g _ ) r q 5 ",
"j j r 0 7 7 7 3 7 7 7 5 w 7 7 7 7 7 7 7 7 7 7 7 7 7 7 7 7 5 6 ; k.}.Y.P.oXoXoX*XoXP.`.Y.D.b.E U b.Y U t.t.w.F F 6.N = ; 4 w W ~ ",
"j / r 7 7 7 7 r 7 7 7 1 7 1 7 2 8 8 7 7 7 7 7 7 7 7 7 7 7 7 7 1 0.P.P.G.`.{.#X#X XJ.T.T.Y.n.U t.U t.t.t.i.w.D D 8.M : 1 7 r W ~ ",
"j / r 7 7 7 7 7 7 1 8 2 : - < p - 2 2 1 1 7 7 7 7 7 7 7 7 7 7 1 g.^.^.P.'.#X#X.X.XJ.J.K.Y.i.i.f.r.i.i.i.u.q.4.5.7.M 2 ; 4 w W W ",
"/ / r r r W w 4 8 1 < h l d d i s h g a 2 2 8 7 7 7 w w 7 1 7 1 9.x.x.f.G..X XE.T.J.D.D.S.q.5.5.8.0.8.8.8.5.| | | v k 8 w r / ` ",
"r r / ] $.<.[ 0 7 2 p s.!.~._.f.D 5.| B b g r r j r j j 8 8 7 1 , < < o d J J G G J J F D u < < p a g h h h g g k v  . .>.] ] ] ",
"c r ) X.*.<.] 7 w 2 - z.].~._.r.F 6.7.B b g r r r r / j 8 1 1 1 7 2 2 - d I J H J I I L D p 2 2 2 g k k k b k b k c +. .>.>.>.>.",
"/ r ) X.] <.$.7 7 8 = c.).G.`.i.D 5.5.{ b j z / r r / j 7 1 7 7 7 1 1 < l 6.F F F F D 5.7.2 1 7 7 r c j j r j j j / ,.[ %.%.$.$.",
"j j / ] <.*.` r 7 1 f p./.(.~.j.D 4.4.{ b j / W W W W r 7 7 7 7 q q 7 8 v | 5.D K 5.5.7.} g w w r r r / / / j c r ) ]  .] ] ] ] ",
"j j r c ) ) ~ W r r j k g a s p p p a 2 1 7 q 5 q q w w 7 7 7 7 W W r r k v v x n B | @.@.] $.$.] / ~ / ~ r 7 7 7 w w 7 7 r r / ",
"j j r r r r W W r r j 8 = : : : - - : 1 7 9 w q q 5 q w 7 7 7 7 W ! / j r g g 0 b } }  . .&.,.&.$.` W W W r 7 7 7 7 7 7 7 r r / ",
"j c c ! r W W ~ / W / 7 7 j 8 1 2 2 8 7 7 5 5 q q 7 q w 7 7 7 7 r W / / r c c z c O.+.] %.%.&.$.$.~ r W / r 7 7 7 7 7 7 7 r r r ",
"r r r r r r r r / r / 7 * 7 7 7 7 8 7 7 9 7 5 7 7 7 w w 7 7 7 7 r W W W ~ z c z ) X.] >.<.$.&.%.$./ r r r r 7 7 7 7 7 7 7 r r r ",
"w w 7 7 7 w r w w 7 r 7 7 7 7 7 * * % 7 ) ' ) [ ` / ` / r r r e / r r r z z r r ~ ) / ` ` r r j r 0 7 r r 7 7 7 7 r r r r r ~ ~ ",
"q 7 7 7 7 7 7 7 7 7 1 7 7 7 7 * $ O O 7 *.<.] >.,.,.,. .( c / c z r r r r W W ! W / r r r 7 1 ; 1 1 1 7 7 7 7 7 7 7 r / / ~ r r ",
"q q w 7 7 7 7 w 1 8 7 7 7 7 w 5 % * % w *.>.[ O. . . .[ c r r r z r z z / ~ W ! W / r r r 0 9 7 7 8 7 1 7 7 7 7 7 r r r r r / / "
};
