/* XPM */
static char *b675d0ce88c14119cddfd1480d4805de7Y53EjGXTY0Eo8HJ[] = {
/* columns rows colors chars-per-pixel */
"64 64 254 2 ",
"   c #2A3A00",
".  c #3A3704",
"X  c #282B00",
"o  c #4A1E00",
"O  c #582808",
"+  c #433908",
"@  c #5B2E12",
"#  c #5E3214",
"$  c #5C331A",
"%  c #563A19",
"&  c #4F340C",
"*  c #622E0A",
"=  c #65320B",
"-  c #643314",
";  c #693414",
":  c #6D3B15",
">  c #63361B",
",  c #6B361B",
"<  c #653A1C",
"1  c #6C3C1B",
"2  c #663817",
"3  c #723D19",
"4  c #632E16",
"5  c #5D3D21",
"6  c #6C3D23",
"7  c #663C24",
"8  c #743D25",
"9  c #384706",
"0  c #2C4401",
"q  c #3D6610",
"w  c #45470E",
"e  c #484715",
"r  c #54431B",
"t  c #564618",
"y  c #475A18",
"u  c #52581D",
"i  c #45590E",
"p  c #6B411D",
"a  c #74421C",
"s  c #7A461C",
"d  c #446A1A",
"f  c #5C4723",
"g  c #5A5523",
"h  c #6D4225",
"j  c #6D452B",
"k  c #6C4B2C",
"l  c #654625",
"z  c #744423",
"x  c #7A4622",
"c  c #7C4A24",
"v  c #73452B",
"b  c #75482B",
"n  c #7B4C2C",
"m  c #79462A",
"M  c #645828",
"N  c #7D522E",
"B  c #744C33",
"V  c #7B4D33",
"C  c #7B4A37",
"Z  c #6D5632",
"A  c #7D5134",
"S  c #7D543B",
"D  c #775837",
"F  c #6E4831",
"G  c #4B7B29",
"H  c #557A2D",
"J  c #5A7C34",
"K  c #52722B",
"L  c #74683A",
"P  c #697635",
"I  c #6B7034",
"U  c #7D5943",
"Y  c #786A41",
"T  c #767742",
"R  c #834E2C",
"E  c #834C26",
"W  c #84522C",
"Q  c #8A552E",
"!  c #8A5629",
"~  c #824E32",
"^  c #834F3A",
"/  c #845433",
"(  c #8B5634",
")  c #865935",
"_  c #8C5A34",
"`  c #83543A",
"'  c #8A563B",
"]  c #85593C",
"[  c #8C5C3B",
"{  c #925C35",
"}  c #925E3B",
"|  c #9A5F38",
" . c #90572C",
".. c #8E613E",
"X. c #886238",
"o. c #946236",
"O. c #94623C",
"+. c #9A643D",
"@. c #9C673A",
"#. c #92602F",
"$. c #A46B3C",
"%. c #A9703B",
"&. c #8A5642",
"*. c #845B42",
"=. c #8B5D42",
"-. c #875A46",
";. c #935D43",
":. c #955E47",
">. c #8D6143",
",. c #8D644A",
"<. c #866349",
"1. c #946443",
"2. c #9A6543",
"3. c #966946",
"4. c #9C6A44",
"5. c #94654A",
"6. c #966A4A",
"7. c #9C6C4B",
"8. c #996649",
"9. c #9B724B",
"0. c #956C52",
"q. c #9C6D51",
"w. c #976856",
"e. c #9D7253",
"r. c #997759",
"t. c #87734E",
"y. c #A26C45",
"u. c #A26E4B",
"i. c #A56948",
"p. c #A57244",
"a. c #A4724C",
"s. c #A9744D",
"d. c #AC7A4D",
"f. c #A97847",
"g. c #B2784D",
"h. c #A56E54",
"j. c #A47453",
"k. c #AB7653",
"l. c #A67955",
"z. c #AC7A53",
"x. c #A3745A",
"c. c #A47A5C",
"v. c #AC7C5B",
"b. c #AA755A",
"n. c #B27D54",
"m. c #B27E5B",
"M. c #B87A56",
"N. c #B26F52",
"B. c #9E7765",
"V. c #AC7C62",
"C. c #A57862",
"Z. c #B37D64",
"A. c #56852E",
"S. c #4D8331",
"D. c #498A33",
"F. c #548432",
"G. c #5C8433",
"H. c #5B8C3B",
"J. c #588838",
"K. c #5D933A",
"L. c #5A973B",
"P. c #4B8933",
"I. c #668738",
"U. c #63943D",
"Y. c #629C3D",
"T. c #6A993B",
"R. c #6D8E38",
"E. c #5DA63D",
"W. c #67A33C",
"Q. c #72A53E",
"!. c #5D9140",
"~. c #639541",
"^. c #649C43",
"/. c #6B9C42",
"(. c #6B9645",
"). c #779849",
"_. c #789952",
"`. c #708941",
"'. c #6BA344",
"]. c #69A846",
"[. c #74AC4C",
"{. c #73A546",
"}. c #74B14E",
"|. c #7AB64C",
" X c #79AA52",
".X c #7BB654",
"XX c #6DB44D",
"oX c #7AC14D",
"OX c #7DC361",
"+X c #84964C",
"@X c #879656",
"#X c #8D8B56",
"$X c #AE805D",
"%X c #AD8056",
"&X c #B48154",
"*X c #B4825B",
"=X c #B9845C",
"-X c #BE8B5D",
";X c #BB8356",
":X c #B58653",
">X c #87A957",
",X c #86B855",
"<X c #8EAF57",
"1X c #999E65",
"2X c #AC8365",
"3X c #B48463",
"4X c #BA8563",
"5X c #BC8A64",
"6X c #BC8C6A",
"7X c #B5886A",
"8X c #BD906D",
"9X c #B88B73",
"0X c #98A969",
"qX c #95B666",
"wX c #8DAE66",
"eX c #A9B576",
"rX c #C38A5C",
"tX c #C3915E",
"yX c #C28D64",
"uX c #C38D6B",
"iX c #C68965",
"pX c #C49264",
"aX c #C4936C",
"sX c #CB956D",
"dX c #CD9B6E",
"fX c #CA9466",
"gX c #D1986B",
"hX c #C49472",
"jX c #CA9673",
"kX c #CC9A73",
"lX c #CE9C7A",
"zX c #C69876",
"xX c #D39E75",
"cX c #D49D79",
"vX c #C28F71",
"bX c #D4A274",
"nX c #D5A27B",
"mX c #DBA57C",
"MX c #DAA779",
"NX c #CCA177",
"BX c #E1A77A",
"VX c #8AC456",
"CX c #92CF5F",
"ZX c #98C666",
"AX c #9AD368",
"SX c #A5C970",
"DX c #DCAA83",
"FX c #D8A885",
"GX c #E2AD86",
"HX c #E4B289",
"JX c #EABA94",
"KX c #C49782",
"LX c #B8D486",
"PX c #C4D891",
/* pixels */
"K H F.H.H.J.F.G P.P.S.J.I.I.K.S.G.H I.G.F.J.F.G S.S.S.F.F.G.G.G A.J.D.D.H.G.J.!.P.J.J.G.J.F.F.F.F.G ~.H.S.J.J.J.J K J J J J.G J.",
"J G.J.S.G G J.~.^.^.~.I.J G S.K.G.G.G.H S.H.J.S.S.S.S.F.F.F.U.{./.^.D.D.F.H F.J.J.H.F.H J.U.U.U.U.J.H.S.G ~.!.F.H H I.G.J J.J.(.",
"H.U./.^.L.H.K.K.[.{./.U.U.K.L.]./.U.K.A.K./.K.Y.K.U.K.K.U.K.K.Y.{./.L.L.U.R.(.'.L.].U.G.H.K.K.^. X(.^.H.P.L.U.^.K.H.U.I.U.^.~.^.",
"}.{./.Y.Y.^.^.U. X{.T.U.'.[.[..X[.Y.K.Y.'.T.T..X[.,X,X[.}.].E.K.>X).].'./.R./.'.XXOX.X{.'.^.^..X X(.U.^.^.W.].}.}..X.X.X X X'.L.",
"oX|.{.T.'.'.^.~.).).>X/.].XX}.,X].L.W.W.W.{.Q.,X,X,X,X}.].].].'.).R.[./.).T.{.'.XX.X.X[.[.^.^. X_.)./.^.].].W.W.|.VX,X.X[.'.'.Y.",
"oXVX,X,X.X].^.~.9 y `./.W.].W.Y.W.Y.[.{.{.,XVX,XVXW.T.{.[.].]./.i i {. X<X>X,X.XE.E.'.{. X XH.d 9 P (./.[.,XCXCXVX|.W.W.{.'.[.'.",
"CXCXZX<X>X).(.`.0 9 +XqX[.[.'.[.Y.A.{.,X,XZXAXVXAX{.Q.{.'. X>X(.9 9 >XwXqX>X,X|.XX].'./.).wX_.9 9 P ). X.X|.VXVXAXVXW.W.{./. X>X",
"VXVXZXZXqX_.K 9 e w @XwXK q A.qX`.i I.qXqXZXZXVX,X,X,XG.q I.wX+Xw w >X X>X+X<XZX.X}.T.d d wXwXy w u u ).ZXZXZXZXVXVX|.{.A.d `.wX",
"SXZXSXSXPX1X. + e e eXeXu   (.SXT X I LXLXSXAXAXZXZXqXI.  I eX1Xw e _.>X).<XqXLXZXSX).  u eX0Xg % + . @XLXSXSXZXSXqXZXqXi 0 @XeX",
"I +XeX).P Y f f f & Y Y M w I.0Xt.t M T `.qXqXI.A.>XqXP 9 M t.L r e wXqXP I P I.(.qX`.e g Y Y f % 5 f L T +XeX>XG.I.>X1Xu 9 I T ",
"+ +XeXP . r B S % % % & % t I 0Xr.B f + u 0X0Xy 0 _.0XL t % $ % & t 0X0Xg . .   J 0Xt.t % % 5 % $ S D r . I eX+X9 u 1X1Xg + r e ",
"t L #XL f k V *.B U k < j l L #X<.S k f M #X#Xu . I t.L k j 6 z D Z #X#XL D M t I #XL p h j j B S -.S k r Y 1XL + t #Xt.k l l l ",
"p % r Z r.0.C ` C.C.:.5.5.>.D f h D ,.r.Y f f r f r f Z *.0.5.=.$X6.g t r.NX2X9.L % N =.5.5.=.C.C.` B r.r.Z r r t & l k S ,.<.<.",
"j l % B 0.<.V =.Z.Z.&.=.=.*.B @ h S <.<.*.l 7 F B $ 5 S ` ` =.=.v.l.t & v.lXb.e.D o ~ ;.' 1.' c.V.=.C ,.0.Z % l B < > j ` =.*.=.",
"D <.=.` j l D >.b.Z.m 8 6 h v h k <.j $ C &.-.-.&.v v V v > h N k.;XX.N m.M.i.j.] < R m , z n e.b.5.` j 7 D <.*.] ] v 8 v 6 8 b ",
",.*.' ~ # < ..] b.iX8 , z 6 , 6 < ,.k @ z ` :.;.:.~ 4 > h 1 < n =Xn.) _ N.N.N.4X/ , ; 3 z * a *X3X=.' b @ b ,.*.=.1.6 , 8 , 6 , ",
"[ v.jX=X4Xv.W [ 2.h.} ( m.aX-XaXa.n O.4X4XyXyX4.2.j.uXaX5Xk._ ) 7.5.7X6X7.2.+._ a.aX;XsX=XE { 4.2.} c a.6X*XuXn._ 4.uX5XuXuX1.) ",
"} 4XGXnXbXyXQ ( ( 2.} 2.sXmXbXGX*X} s.xXdXbXxXa.} uXGXDXDXyXo.O.[ 0.zXhX7.' W Q n.mXmXmXsXy.+.{ _ ( ( 5XnXxXGXsX! @.kXMXGXGXk.} ",
"x s.aX;X-Xn.W } j.v.7.2.s.s.d.fXa.W 4.pX-XpX5X_ c 4XjXz.m.k.{ a.7.x.7X7X$Xz.s.z.*XfXyXn.s.4.O.u.k.} W z.yXyXpXy.E { yXyXk.k.4.2.",
"* { &Xn.=Xz.Q } 4X4Xu.} O.{ @.yXa.W +.&Xd.&Xz.s = 7.3X7.2.4.{ 2.7X7X3X3XkXFXxXnXyXn.a.{ { O.O.5X5X} R a.k.z.=X+.* s *X=XO.} 2.2.",
"E p.;Xd.s.y._ } *Xk.2.} 2.} +.n.a._ O.p.p.&X&X_ ( 7.m.2./ 1.4.O.*X$Xl.a.5XaXm.*Xn.a.y._ } 2.} *X4X{ ( a.u.s.=Xz.Q Q s.k.{ { +.O.",
";X-X=Xy.Q Q { _ 5X4Xk.O.R 3 x 2.( W Q  .@.&X-Xz.4Xu.8.m * R u.a.4Xz.4.O.k.*XO._ _ } _ : x +.4.*XyXO.R _ { a.=Xn.yXn.y.Q : 3 ( 2.",
"g.d.&Xz.{ O.a.} k.k.u.} x 8 / 7.} 4.+.! +.d.n.&Xv.2.1./ m / [ O.*Xa.+.O.s.*X+.W W O.) 1 z [ 4.z.u.4.2.( _ z.=Xn.s.a.4.{ E x ( +.",
"@. .o.+.W u.jX4Xx 3 : x [ 8.8.;.v.aX*Xo.o.o._ O.2.1.1.;.1.( 1 x : s o.{ } { x : W 1.4.O.[ b 1 z a m.cXk.W { +.O.4.+._ O.4._ c 3 ",
"@.#.o.O.( k.lXm.: s a a _ 1.;.5.x.lX*X_ o.+.o.[ } 1.8.1.8.( 1 x a a o.{ _ O.a ; / 1.[ 1.1.z p z x z.kXz.W _ 2.} } +.2.O.4.} s x ",
"fXdXbXa., R m.*X{ { =XxX5X3Xh.6 ' 3Xa.: W yXnXjXlX' z 7.b.4XlX*X{ o.yXfXsXkX7./ n n 1.3X$X8XkX+.E k.*XW : a.lXaXcX4Xc x a.*XyXaX",
"bXbXDX4.4 n 8.j.+.@.dXHX5Xv.q.4 ' 7.2.* s kXDXlXHX' @ h.7XhXJXkXo.$.dXnXcXkXj.[ m , ) 3X6XFXDX4.O.a.a.c = u.FXlXFXjXa z k.5XDXHX",
"-X&XaX2.m ' / W =X-X:Xp.v.3Xx.w.=.n [ m / 4X3X3X6Xx.~ b.hXj.j.&XrX&XyX5X5X5X7.( ' 1.7.3X6Xz.a.=XyX_ W / c 1.6X6X7X6X[ 1.5X*Xz.k.",
"&Xa.6Xj.` ^ , : MXbX@.E *XvXZ.9X` @ m [ 4.*Xl.3Xv.6XZ.v.6X4.c 4.HXfX&Xz.m.3X5.b 5.4X7X3Xv.)  .bXDXx O W O.u.Z.m.3X3Xj.b.jX4X_ W ",
"p.+.j.7.&.` z n fX-X:Xf.s.x.h.w.=.6 V [ 1.a.7.j.j.q.b.q.j.*Xk.z.fX-X&Xs.7.8.5.=.5.6.x.a.y.z.&XyXkXW : ) } 1.u.u.j.j.j.7.j.b.a.*X",
"o.! ' &.&.&.' [ d.d.dXbXa.[ 5.:.w.&.` / ( } O.[ 1.' ' O.[ *XnXpXp.g.=Xn.1.[ q.C.q.' 1.O.p.mXbXd.z.{ ' [ / / [ [ [ } 1.O.' O.6XDX",
"Q +.2.;.` C ' ( k.f.pXdXk.[ ;.:.` &.~ ( [ [ 2.[ ) 2.' 1.[ 9.nXpXd.z.s.a.} [ 7.j.2.[ 2.[ +.sXfXz.k.O.W R ( ;.2.1.[ 1./ 1.} O.aXaX",
": 2.FXj.O < ` A =.A x.v.b.v.x.' / / n @ z jXhXx : / ' 8.2XV.e.x.} ) 2.( / R Q Q { W u.m.k.*Xk.[ ' ' / 1 O 2.FXj.* 1 2.[ a.v.v.x.",
"* y.kX8.2 h S ` ,.=.c.c.c.u.7.2.2.n m 1 n 7X7Xn ; / 8.7.j.v.c.x.` ] 8.( O.1.} W Q 4.+.a.v.b.x.,.` V C m , } uX3X; 3 O.4.e.v.$Xl.",
"5Xk.W W 3.1.` V > 6 =./ n z O.hXx.z W 7.1.} 2.k.6XuX5X..< b >.` 7 v ' / m.5X_ O ) kX7.p V [ =.6 B v ` 1.1.[ [ 2.5X6X6X*Xm , / ..",
"kXa.x 2.m.1.A b - # ] / 1 - 4.DXa.n ' b.7.m / aXjXjXjX2.@ z >.b $ 6 A ' 7X8X[ O 1.FXx.@ > ] *.$ > < / 2.x.2.n 2.jXkXkXlXm O m ) ",
"p.+.W W W / 1./ / z b.m.[ a O.z.1.1.' c ( Q W s.u.j.*X1.p >.7Xq.v B ,.>.e.l.j.9.j.v.2.b ] V.r.S b / [ W [ ) x +.z.a.4.m.n n a.$X",
"s.{ s a a W 8.>.A N 7X7X1.x { 4.2.2.) s E Q E o.a.a.a.' z 3.6X7XS S e.6.3.3.v.8Xv.3.[ A ,.9X2X>.] 3.8.W x x x _ z.y.+.+.m / $X8X",
"o.y.z.*Xz.3./ [ N [ v.j.v.j.*XkXk.W +.k.a.y.y.a.O.z.4X*Xv.v.l.j.] S 2X2X9...7.4.v.5X$X9.7.c.c.] n / [ 7.a.a.z.a._ 4.yX6X*Xb.l.a.",
"@.pXDXkXDXaX' / 1.3.[ ' nXHXnXDX=Xc a.mXxXGXmXp.+.aXDXHXHX6X1.[ >.3.FXlX4.W _ W z.DXDXJXlX3.2.1.1.W ) 6XmXMXGXyX{ a.MXnXHXDX*X..",
"! &XkXpXsX4X) _ 4.4.2.+.*XsX=XxXz.W u.sXyXkXsXo.W 5XnX4X5X3X1.3.3.a.jXkXn.s.y.y.n.kXaXyX*X+.2.u.a.) / *XaXfXxX;XQ O.kXaX5XaXa.4.",
"= @.5X*Xn.4.W O.6X4Xa._ O.2.y.yXa.c O.*Xn.=Xn.s = 4.=Xa.4.4...4.aX&X*X=XyXxXxXbXsXyX@.O.y.O.4.=X4XO.W a.*Xn.n.o.= s *X*X2.2.' [ ",
"x @.&Xn.z.a.[ 2.v.v.2.+.4.O.4.m.s.' +.z.s.*Xn.R E y.*Xy.[ 1.2.9.*Xn.&X-XxXmXiXyXn.M.y.{ @.+.{ =X*XO.) a.z.n.=Xs.a W z.*XO.[ 7.u.",
"n.*Xn.a.4.+.) ' 4X4X2.} W 3 ( y.{ ( _ O.4.*XyXs.s.y.4.W a / 1.4.4Xn.y.+.n.m.@.+.{ u.+.: x O.+.5X*X2.W _ +.a.*X*Xn.a.4.4.x 3 1.O.",
"=X4X=Xa.) W [ O.*X4Xu.1.c ; R 2.W } } ( O.n.4X-X*X2.} c 1 / 2.7.6Xz.O._ k.*X2.( ( O.( = x 4.2.*X*X7._ W { s.n.n.aXn.{ ( a 1 1.[ ",
"+.2.2.2.} 7.5X*Xn c x R ' } 2.2.h.uXm.} } y.y.2.s.+.y.2./ / n n / / } 1.j.j.R 3 ) } 1.[ [ W s W W a.5Xa.O.4.y.y.2.2.} 4.1./ [ ~ ",
"( { _ { ( a.kX4Xx ; ; 1 R 2.;.) v.lXm.Q _ +.( { +.Q } 2.[ / 1 2 # 1 ' [ ( / 6 - / ' 1.3./ 1 1 p 1 b.cXk.R Q Q { { +.{ } 2.) z , ",
"m.5X=Xu.z ( 5Xz.E ( k.k.a.k.} ~ 1.7Xu.x | n.n.4X*XO.) } j.v.a.j./ ' v.7Xv.c.1.v m ' =.j.x.j.k./ E k.4X( c a.n.;X*Xk.( R h.m.j.k.",
"BXDXDX8.- b 7.k.| | xXGXuX7X1.$ S x.q.O c cXMXFXFX] O 1.6XaXHXgX{ @.dXxXDXFX8.` b - ' 3XuXDXmX@.! s.m.n @ 2.mXbXMXsX* 8 Z.4XxXGX",
";XyXjX7.h b ] 1.i.N.rXiX=XZ.5.F -.U ] 1 Q 5X5X5X8X6.B e.7Xn.=XrX%.%.rX=X4X6X3.[ ] A 2.*X*X;X;Xg.f.E ~ ^ m 7.fX-X-X5X( ' V.v.n.rX",
"=Xd.j.3.=.` 6 , mXgX+.E u.4X7X2XU $ v / } m.*Xv.c.c.r.2X4X4. .o.BXgX;Xd.k.l.>.b >.e.V.3Xa.Q @.fXMXE ; ^ ` 2.*Xf.%X%Xx.h.9X3X@.! ",
"a.y.j.3.] v < m jXaX+.| k.b.c.r.S 7 b ( [ a.j.j.j.e.r.e.c.a.+.$.fXtXp.4.a.3.3.A >.e.x.x.u.+.y.yXfXx ; C ] 1.a.a.9.9.j.x.Z.j.y.o.",
"Q ) [ ] / A n 1.u.4XuXjXv./ *.*.*.S ` / ( ) ( [ 3.` ] ] ] v.sXsX@.&Xd.a.O./ 7.e.5.] ` [ a.aXjXk.a.( n ' =.( / ) X.O.=.&.&./ 4XkX",
"W / [ A A =.` ~ j.k.uXjX7.V >.,.S S A V ' [ ) ( ] V ] =./ j.jXyX4.z.k.a.[ n >.6.,.` ] [ 2.jXlX2.a.O./ / ` V W ) W ) / ` 1./ 5XkX",
"1 3.8X3.> 1 V V ' ' j.v.j.7.>.B V V v 6 ~ v.Z.R 6 / =.q.8.7.v.2.' [ / / / A ` ` ] ] 3.7.2.v.$X} O.n b h > >.7Xl.a z ) ` c.7.v.l.",
"O 3.lX3.O > A C ` ] e.q.x.3X1.A ` A h O , hXlX- O n n 1.c.j.V.3./ A / A A A n A A N >.x.v.c.6./ ' m / 1 o 1.lX7.O # [ b j.b.q.j.",
"9.3.[ 2.[ n / h 6 b =.5.A z [ 7X7.h ' [ A 1.1.7.2.j.v.1.V ` ,.=.7 z ` V 7.c.[ # ' 7X1.m n >.q.7 6 b / n ( [ ( 7.7.7.j.l.A m 5.=.",
"hX7.z ( 2.[ [ z $ # 6 B < - 1.jX7.1 V 3.8./ m 3XcXjX5X' O > S j $ < b V V.2Xn o [ hX7.@ > V h $ $ > n [ 4.O.n 1.zXhXzX4Xp o v C ",
"v.[ z / O.) / b 6 6 *.0.b 2 _ 5X1.( [ [ >.N z *Xs.s.m.} - S r.U 7 j ` A c.v...W 1.7X7.# z q.] j j v / ' _ W n [ k.j.*X$XN 2 *.0.",
"1.' x s s x / 5.v S C.7X=.a R @.{ _ ) h h b b } { @.2.W h ,.2XB.F B 5.] =.1.j.*X4.[ / z / 2X2XB C *.[ x : a m R 7.[ o._ x n x.7X",
"..3.+.{ +.2._ ' B S 0.x.7.u.g.g.s.c ) 6.>.>.3.+.o.n.s.+.8.q.0.0.U B C.C.=.( y.O.z.k.1.7.3.0.c.B C ] O.o.o.+.2.} ;.2.z.p.+.3.e.w.",
") v.kXsXgXyX( z *.*.*.,.3XcXmXxXn.x 4.NXzXzXzXp.E rXgXkXFX7XU U -.*.KXzX1.n ( s s.MXkXlXhX=.*.-.-.V W &XdXdXjX6XR 4.sXbXbXkXx.` ",
"N v.xXyXrXn.( ' 5.0.*.*.c.uXiXfX$.s 4.aX6XzXzXW E rXgXyX8Xc.<.<.<.w.9X7X7.[ O.{ @.kXaX5X7X=.V 0.w.V s f.pXpXsX4X' 2.-XtXpX6Xq.&.",
"; ' z.s.g.y.E ) x.C.,.S 1.} | M.$.s _ l.9.l.l.a = $.g.@./ ] <.<.B.B.V.x.vXjXyXyX=Xn.y.) ] =.,.r.C.:.W p.f.p.k.;.; E f.p.o._ ` w."
};
